<svg xmlns="http://www.w3.org/2000/svg" viewBox="0 0 1679.762 566.802">
  <defs>
    <style>
      .cls-1 {
        fill: #404040;
      }

      .cls-2 {
        fill: #2db60d;
      }

      .cls-3 {
        fill: #fdea00;
      }

      .cls-4 {
        fill: #f9833c;
      }
    </style>
  </defs>
  <g id="campturia" transform="translate(-280.337 231.626)">
    <path id="name" class="cls-1" d="M1531.564-234.983c-4.2-5.5-6.2-13.3-6.2-23.2,0-9.3,1.3-17.1,3.8-23.4s6.1-11,10.7-14.1,10.2-4.6,16.8-4.6a31.067,31.067,0,0,1,8.4,1.1v4.3a24.329,24.329,0,0,0-8.6-1.3c-8,0-14.3,2.9-18.8,8.7s-7,14.2-7.5,25.3h.6a25,25,0,0,1,8.5-7.2,22.391,22.391,0,0,1,10.1-2.4q10.051,0,15.6,5.7c3.7,3.8,5.6,9.1,5.6,15.8,0,7.3-2,13-5.9,17.3-4,4.2-9.3,6.3-16,6.3A20.415,20.415,0,0,1,1531.564-234.983Zm8.4-30.7a18.452,18.452,0,0,0-6.8,5.8,12.658,12.658,0,0,0-2.5,7.4,23.638,23.638,0,0,0,2.4,10.4,20.376,20.376,0,0,0,6.5,7.9,16.146,16.146,0,0,0,9.2,3.1c5.3,0,9.5-1.7,12.5-5,3-3.4,4.4-8.1,4.4-14.4,0-5.5-1.5-9.7-4.4-12.8s-6.9-4.6-12-4.6A19.913,19.913,0,0,0,1539.965-265.683Zm-260.7,31.8c-4.3-4.8-6.5-11.4-6.5-20,0-8.5,2.1-15.2,6.2-20.3,4.2-5.1,9.8-7.6,16.8-7.6,6.2,0,11.2,2.2,14.8,6.5,3.6,4.4,5.4,10.3,5.4,17.8v3.9h-38.2c.1,7.3,1.8,12.9,5.1,16.7s8.1,5.8,14.3,5.8a47.489,47.489,0,0,0,8-.6,45.546,45.546,0,0,0,8.7-2.7v4.4a41.914,41.914,0,0,1-8.3,2.7,43.609,43.609,0,0,1-8.3.5C1289.565-226.782,1283.565-229.182,1279.265-233.882Zm4.3-38.6c-3.1,3.4-4.9,8.2-5.4,14.6h32.8c0-6.2-1.3-11-4-14.4a13.565,13.565,0,0,0-11.1-5.3A15.846,15.846,0,0,0,1283.565-272.482Zm-64.6,38.9c-3.9-4.6-5.8-11.2-5.8-19.9,0-9.2,1.9-16.2,5.8-21,3.8-5,9.4-7.4,16.7-7.4a22.326,22.326,0,0,1,10,2.1,19.641,19.641,0,0,1,7.5,7.2h.3c-.2-4.1-.3-8.1-.3-12.1v-19.1h4.8v76h-3.2l-1.2-8.1h-.4c-4,6.1-9.8,9.1-17.4,9.1C1228.465-226.782,1222.864-229.082,1218.964-233.582Zm3.6-37.8c-2.9,4.1-4.4,10-4.4,17.7,0,15,5.8,22.6,17.5,22.6,6,0,10.4-1.7,13.2-5.2s4.2-9.2,4.2-17.2v-.8c0-8.2-1.4-14.1-4.1-17.7-2.6-3.7-7.1-5.5-13.3-5.5C1229.864-277.483,1225.564-275.483,1222.565-271.382Zm-104.3,37.5c-4.3-4.8-6.5-11.4-6.5-20,0-8.5,2.1-15.2,6.2-20.3,4.2-5.1,9.8-7.6,16.8-7.6,6.2,0,11.2,2.2,14.8,6.5,3.6,4.4,5.4,10.3,5.4,17.8v3.9h-38.2c.1,7.3,1.8,12.9,5.1,16.7s8.1,5.8,14.3,5.8a47.476,47.476,0,0,0,8-.6,45.546,45.546,0,0,0,8.7-2.7v4.4a41.912,41.912,0,0,1-8.3,2.7,43.6,43.6,0,0,1-8.3.5C1128.565-226.782,1122.565-229.182,1118.264-233.882Zm4.3-38.6c-3.1,3.4-4.9,8.2-5.4,14.6h32.8c0-6.2-1.3-11-4-14.4a13.564,13.564,0,0,0-11.1-5.3A15.846,15.846,0,0,0,1122.565-272.482Zm-64.5,38.9c-3.9-4.6-5.8-11.2-5.8-19.9,0-9.2,1.9-16.2,5.8-21,3.8-5,9.3-7.4,16.7-7.4a22.323,22.323,0,0,1,10,2.1,19.641,19.641,0,0,1,7.5,7.2h.3c-.2-4.1-.3-8.1-.3-12.1v-19.1h4.8v76h-3.2l-1.2-8.1h-.4c-4,6.1-9.8,9.1-17.4,9.1C1067.565-226.782,1061.965-229.082,1058.064-233.582Zm3.6-37.8c-2.9,4.1-4.4,10-4.4,17.7,0,15,5.8,22.6,17.5,22.6,6,0,10.4-1.7,13.2-5.2s4.2-9.2,4.2-17.2v-.8c0-8.2-1.4-14.1-4.1-17.7-2.7-3.7-7.2-5.5-13.3-5.5C1068.964-277.483,1064.665-275.483,1061.664-271.382Zm103.2,41.3v-5.2a36.87,36.87,0,0,0,16.9,4c5.2,0,9.2-.9,11.9-2.6a8.015,8.015,0,0,0,4.1-7,8.478,8.478,0,0,0-3.2-6.7c-2.2-1.8-5.7-3.6-10.7-5.4a60.163,60.163,0,0,1-11.2-5,15.8,15.8,0,0,1-4.9-4.7,11.707,11.707,0,0,1-1.6-6.4,10.876,10.876,0,0,1,5-9.4c3.3-2.3,8-3.5,14-3.5a42.66,42.66,0,0,1,16.3,3.2l-1.8,4.4a38.907,38.907,0,0,0-14.5-3.2c-4.3,0-7.8.7-10.3,2.1a6.616,6.616,0,0,0-3.8,6,7.989,7.989,0,0,0,3,6.6c2,1.6,5.8,3.5,11.5,5.6a50.427,50.427,0,0,1,10.4,4.7,15.819,15.819,0,0,1,4.9,4.7,11.618,11.618,0,0,1,1.7,6.3,12.7,12.7,0,0,1-5.4,11c-3.6,2.6-8.7,3.8-15.4,3.8C1174.665-226.783,1169.065-227.883,1164.865-230.082Zm306.8,1.9v-4.2a21.874,21.874,0,0,0,5.1,1c2,.2,3.5.4,4.5.4q12,0,18.9-8.7c4.6-5.8,7.1-14.3,7.6-25.4h-.6a25.369,25.369,0,0,1-8.5,7.2,22.061,22.061,0,0,1-10.3,2.5c-6.6,0-11.8-1.8-15.5-5.5-3.7-3.6-5.5-8.8-5.5-15.5,0-7.2,2-13,6.1-17.4a20.529,20.529,0,0,1,15.8-6.6,20.575,20.575,0,0,1,12.3,3.7,23.8,23.8,0,0,1,8.1,10.8,46.174,46.174,0,0,1,2.9,17c0,9.4-1.2,17.2-3.7,23.5s-6,11-10.7,14-10.4,4.5-17.1,4.5A31.42,31.42,0,0,1,1471.665-228.182Zm5.3-62.6c-3.1,3.5-4.6,8.2-4.6,14.2q0,8.551,4.2,12.9c2.8,2.9,6.9,4.4,12.2,4.4a19.226,19.226,0,0,0,9.2-2.2,19.292,19.292,0,0,0,6.8-5.8,12.669,12.669,0,0,0,2.5-7.4,25.708,25.708,0,0,0-2.3-10.7,18.813,18.813,0,0,0-6.3-7.8,16.248,16.248,0,0,0-9.4-2.8C1484.165-295.982,1480.063-294.282,1476.965-290.783Zm-62.4,62.6v-4.2a21.9,21.9,0,0,0,5.1,1c2,.2,3.5.4,4.5.4q12,0,18.9-8.7c4.6-5.8,7.1-14.3,7.6-25.4h-.6a25.38,25.38,0,0,1-8.5,7.2,22.053,22.053,0,0,1-10.3,2.5c-6.6,0-11.8-1.8-15.5-5.5-3.7-3.6-5.5-8.8-5.5-15.5,0-7.2,2-13,6.1-17.4a20.535,20.535,0,0,1,15.8-6.6,20.575,20.575,0,0,1,12.3,3.7,23.809,23.809,0,0,1,8.1,10.8,46.172,46.172,0,0,1,2.9,17c0,9.4-1.2,17.2-3.7,23.5s-6,11-10.7,14-10.4,4.5-17.1,4.5A31.427,31.427,0,0,1,1414.564-228.182Zm5.3-62.6c-3.1,3.5-4.6,8.2-4.6,14.2q0,8.551,4.2,12.9c2.8,2.9,6.9,4.4,12.2,4.4a19.224,19.224,0,0,0,9.2-2.2,19.312,19.312,0,0,0,6.8-5.8,12.669,12.669,0,0,0,2.5-7.4,25.681,25.681,0,0,0-2.3-10.7,18.8,18.8,0,0,0-6.3-7.8,16.029,16.029,0,0,0-9.4-2.8C1427.064-295.982,1422.965-294.282,1419.864-290.783Zm-43.6,63v-52q0-7.051.6-14.7a19.223,19.223,0,0,1-1.5,1.4c-.5.5-5.5,4.4-15.1,11.9l-2.8-3.5,19.4-14.5h4.2v71.4Zm-572.3-61.6v-156.4h24.1l4.2,14.1h1.4c6.9-10.8,17.2-16.1,30.8-16.1,12.8,0,22.9,5,30.1,14.9,7.3,9.9,10.9,23.7,10.9,41.3,0,11.6-1.7,21.7-5.1,30.2s-8.2,15.1-14.5,19.5a37.589,37.589,0,0,1-22.2,6.7c-12.8,0-22.8-4.6-30-13.9h-1.6c1,9.1,1.6,14.3,1.6,15.7v44Zm34.9-127.9c-3.4,4.5-5.1,11.9-5.2,22.3v3.2c0,11.7,1.7,20,5.2,25.1s9,7.6,16.5,7.6c13.3,0,19.9-10.9,19.9-32.8,0-10.7-1.6-18.7-4.9-24-3.4-5.5-8.5-8.2-15.5-8.2C847.564-424.082,842.164-421.782,838.864-417.282Zm-533.7,78.5c-3-2.9-4.5-7-4.5-12.2,0-5.4,1.5-9.6,4.4-12.3,2.9-2.8,7.2-4.2,12.7-4.2,5.4,0,9.5,1.4,12.5,4.3,2.9,2.9,4.4,6.9,4.4,12.2,0,5.1-1.5,9.2-4.5,12.1s-7.1,4.4-12.4,4.4C312.364-334.482,308.065-335.882,305.165-338.783Zm632.3-9.9c-7.7-9.1-11.6-22.3-11.6-39.6,0-18.3,3.8-32.2,11.5-41.9,7.6-9.8,18.8-14.6,33.3-14.6,7.6,0,14.3,1.4,19.8,4.2,5.6,2.8,10.6,7.5,15,14.3h.6q-.6-12.3-.6-24v-38h9.5v151.2h-6.3l-2.4-16.1h-.8c-8,12-19.6,18.1-34.6,18.1C956.264-335.083,945.164-339.583,937.464-348.682Zm7.2-75.3c-5.8,8.1-8.7,19.9-8.7,35.3q0,44.85,34.9,44.9c11.9,0,20.7-3.5,26.2-10.4,5.6-6.9,8.4-18.4,8.4-34.3v-1.7c0-16.3-2.7-28.1-8.2-35.2s-14.3-10.7-26.6-10.7C959.164-436.082,950.464-432.083,944.664-423.983Zm559.5,80.8c-5.8-5.3-8.6-12.7-8.6-22.1q0-15.451,12.9-24c8.6-5.7,21-8.7,37.3-9l20.1-.6v-7c0-10-2-17.6-6.1-22.7s-10.7-7.7-19.7-7.7c-9.8,0-19.9,2.7-30.4,8.2l-3.6-8.4c11.6-5.4,23.1-8.2,34.4-8.2,11.6,0,20.3,3,26,9s8.6,15.4,8.6,28.2v70.3h-7.2v.1l-2.4-16.7h-.8c-5.3,6.8-10.8,11.6-16.4,14.4s-12.2,4.2-19.9,4.2C1517.964-335.182,1509.964-337.883,1504.164-343.183Zm42.9-46.9c-14.8.7-25.4,3-31.7,6.9s-9.5,10-9.5,18.3c0,6.6,2,11.7,6.1,15.4,4,3.7,9.7,5.6,17.1,5.6,11.3,0,20.2-3.2,26.7-9.7,6.5-6.4,9.8-15.4,9.8-26.9v-10.4Zm-489.8,40.7c-8.6-9.5-12.9-22.7-12.9-39.7,0-16.8,4.1-30.3,12.4-40.5,8.3-10.1,19.5-15.2,33.5-15.2,12.4,0,22.3,4.3,29.4,13q10.8,13.049,10.8,35.4v7.8h-76.1c.1,14.5,3.5,25.6,10.2,33.2,6.6,7.6,16.1,11.5,28.5,11.5a83.77,83.77,0,0,0,15.9-1.3c4.6-.8,10.3-2.7,17.3-5.4v8.7a76.142,76.142,0,0,1-16.5,5.3,93.4,93.4,0,0,1-16.6,1.4C1077.764-335.182,1065.864-339.882,1057.264-349.383Zm8.5-76.8c-6.2,6.7-9.8,16.4-10.8,29h65.3c0-12.2-2.7-21.8-8-28.7-5.2-6.9-12.6-10.4-22-10.4C1080.064-436.282,1071.964-432.882,1065.764-426.182Zm-575.5,82.1c-6-6-9-14.4-9-25.5,0-11.5,4-20,12.1-25.5s20.2-8.5,36.5-9.1l18.9-.6v-4.8c0-11-5.6-16.5-16.9-16.5-8.7,0-18.9,2.6-30.6,7.9l-9.8-20a88.932,88.932,0,0,1,41.6-9.8c14.6,0,25.7,3.2,33.5,9.5s11.7,16,11.7,29v72.4h-20.9l-5.7-14.8h-.8c-5,6.3-10.1,10.6-15.4,13.1-5.3,2.4-12.2,3.6-20.6,3.6C504.464-335.182,496.265-338.182,490.264-344.083Zm46.8-43c-8.6.3-15,1.8-19.2,4.7s-6.3,7.2-6.3,13c0,8.4,4.8,12.5,14.4,12.5,6.9,0,12.4-2,16.5-5.9,4.1-4,6.2-9.2,6.2-15.7v-9h-.1Zm-163,33.1q-16.35-18.749-16.4-54c0-14.8,2.7-27.7,8.1-38.8a58.884,58.884,0,0,1,23.2-25.6c10.1-5.9,21.9-8.9,35.4-8.9,13.8,0,27.7,3.3,41.6,10l-9.7,24.5c-5.3-2.5-10.7-4.7-16-6.6a52.389,52.389,0,0,0-16-2.8c-11.3,0-20.1,4.3-26.3,12.8s-9.3,20.4-9.3,35.6q0,47.55,35.7,47.5c10,0,22.1-2.5,36.2-7.5v25.3c-11.7,4.9-24.7,7.3-39.1,7.3Q390.415-335.182,374.064-353.983Zm888.7-19.9v-69h9.5v68.5c0,10.6,2.2,18.3,6.7,23.2,4.5,4.8,11.4,7.2,20.8,7.2,12.6,0,21.8-3.2,27.7-9.5s8.9-16.7,8.9-31v-58.3h9.5v105.6h-8.2l-1.7-14.6h-.6q-10.35,16.5-36.6,16.5Q1262.765-335.282,1262.764-373.883Zm196,36.8v-105.7h9.6v105.7Zm-77.3,0v-105.7h8.2l1,19h.7c4.3-7.8,9-13.2,13.9-16.4,4.7-3,10.7-4.6,17.7-4.6a83.338,83.338,0,0,1,14.4,1.4l-1.8,9.2a56.508,56.508,0,0,0-13.7-1.7c-9,0-16.4,3.8-22.2,11.5-5.8,7.6-8.6,17.3-8.6,29v58.3Zm-182.4,0h.1Zm-9.9,0v-132.8h-46.2v-9.3h102.3v9.3h-46.2v132.8Zm-483.3,0h-29.6v-63.5c0-7.8-1.3-13.7-3.9-17.6s-6.8-5.9-12.4-5.9q-11.4,0-16.5,8.4c-3.4,5.6-5.1,14.7-5.1,27.5v51.1h-29.6v-108.7h22.6l4,13.9h1.7a29.768,29.768,0,0,1,12.6-11.7,41.087,41.087,0,0,1,18.9-4.2q24.45,0,33,15.9h2.6a29.061,29.061,0,0,1,12.9-11.8,42.967,42.967,0,0,1,19.2-4.2c12.3,0,21.6,3.2,27.9,9.5s9.5,16.4,9.5,30.4v70.8h-29.7v-63.5c0-7.8-1.3-13.7-3.9-17.6s-6.8-5.9-12.4-5.9c-7.3,0-12.7,2.6-16.3,7.8s-5.4,13.4-5.4,24.7v54.6Zm-546.1,0v-142.1h44.6q34.8,0,54,18.4,19.351,18.3,19.3,51.3,0,35.1-20,53.7c-13.3,12.4-32.5,18.7-57.7,18.7Zm30.2-25h12.9q43.5.151,43.5-46.7,0-45.75-40.4-45.8h-16Zm1267.4-110c0-6.2,2-9.3,6.1-9.3a5.4,5.4,0,0,1,4.7,2.4,12.1,12.1,0,0,1,1.7,6.9,12.564,12.564,0,0,1-1.7,6.9,5.27,5.27,0,0,1-4.7,2.5C1459.464-462.683,1457.365-465.782,1457.365-472.082Z" transform="translate(385.036 552.883)"/>
    <path id="i1" class="cls-2" d="M-19.8-79.1c-9.8-15-75.9,51.3-84.3,67.4s-32,178.8,4.8,240.1,73,84.3,86.4,70.2c7.1-7.5-17.6-105.2-20.3-202.8C-35.4,12.3-15.1-72-19.8-79.1Z" transform="translate(399.652 15.344)"/>
    <path id="i2" class="cls-3" d="M-14.9,135.3c-3.3-5.4.8-102.3,7.5-183.6,5-61.5,24.3-121.8,27.9-129,8-16.2,84.3-74.1,92.7-69.4,4.3,2.4-20.3,97.2-32.4,191.2C69.7,31,71.3,116.8,66.8,121.7,57.5,131.6-9,145.1-14.9,135.3Z" transform="translate(399.652 15.344)"/>
    <path id="i3" class="cls-4" d="M111.3-120.6c8.7-13.4,59.7-65.9,65.3-58.2,3.2,4.4-11.1,56-14.8,106.1-2.6,34.2,0,63.9-6.9,72.5C139,19.6,120.5,10,111.3,21.5c-5.4,6.7-5.3,107.6-8,187.4-1.8,54.4,2.9,103.7,0,108.1-7,10.5-43.9-10.8-49.1-21.5S39.2,153.3,48,143.1s22.2-5.7,33.5-19.5C87.7,116,85.2,44,90.7-21.1,95-70.2,107.4-114.5,111.3-120.6Z" transform="translate(399.652 15.344)"/>
  </g>
</svg>
