<svg xmlns="http://www.w3.org/2000/svg" viewBox="0 0 243.769 43.454">
  <defs>
    <style>
      .cls-1 {
        fill: #fff;
      }
    </style>
  </defs>
  <g id="Logo" transform="translate(-0.023 0.003)">
    <g id="Group_74" data-name="Group 74" transform="translate(55.478 5.479)">
      <path id="Path_199" data-name="Path 199" class="cls-1" d="M170.178,15.037v1.827h-16.15v12.9h13.994v1.827H154.029v14.1H151.8V15h18.378Z" transform="translate(-151.8 -15)"/>
      <path id="Path_200" data-name="Path 200" class="cls-1" d="M219.329,45.791H217.1V15.1h2.229Z" transform="translate(-193.241 -15.063)"/>
      <path id="Path_201" data-name="Path 201" class="cls-1" d="M247.235,15.173a.746.746,0,0,1,.365.329l19.876,26.6c-.037-.438-.073-.84-.073-1.242V15.1h1.936V45.791h-1.06a.961.961,0,0,1-.8-.438L247.563,18.717c.037.438.073.84.073,1.242V45.791H245.7V15.1h1.1A1.363,1.363,0,0,1,247.235,15.173Z" transform="translate(-211.391 -15.063)"/>
      <path id="Path_202" data-name="Path 202" class="cls-1" d="M356.6,30.446a18.475,18.475,0,0,1-1.06,6.394,13.23,13.23,0,0,1-7.6,7.892,16.444,16.444,0,0,1-5.956,1.06H330.8V15.1h11.18a16.3,16.3,0,0,1,5.956,1.06,12.435,12.435,0,0,1,4.6,3.069,13.817,13.817,0,0,1,3,4.823A17.656,17.656,0,0,1,356.6,30.446Zm-2.3,0a17.359,17.359,0,0,0-.877-5.736,11.386,11.386,0,0,0-2.521-4.238,10.006,10.006,0,0,0-3.909-2.631,13.311,13.311,0,0,0-5.042-.913h-8.952V44.038h8.952a13.051,13.051,0,0,0,5.042-.913,11.184,11.184,0,0,0,3.909-2.631,12.805,12.805,0,0,0,2.521-4.238A18.126,18.126,0,0,0,354.293,30.446Z" transform="translate(-265.398 -15.063)"/>
      <path id="Path_203" data-name="Path 203" class="cls-1" d="M418.475,16.146,440,45.413c0-.073-.037-.146-.037-.219V16h.438V46.363h-.146a.317.317,0,0,1-.256-.146L418.4,16.8c0,.073.036.183.036.256v29.3H418V16h.183A.332.332,0,0,1,418.475,16.146Z" transform="translate(-320.738 -15.635)"/>
      <path id="Path_204" data-name="Path 204" class="cls-1" d="M520.757,16v.475H503.512v14.25h14.615V31.2H503.512V45.924h17.282l-.037.475H503V16Z" transform="translate(-374.681 -15.635)"/>
      <path id="Path_205" data-name="Path 205" class="cls-1" d="M578.7,18.333a.37.37,0,0,1-.256.146c-.146,0-.329-.146-.585-.438a5.648,5.648,0,0,0-1.169-.95,8.282,8.282,0,0,0-1.973-.95,9.022,9.022,0,0,0-3.033-.438,8.7,8.7,0,0,0-3.325.585,6.822,6.822,0,0,0-2.411,1.535,6.656,6.656,0,0,0-1.5,2.229,7.172,7.172,0,0,0-.512,2.631,5.5,5.5,0,0,0,.694,2.923,7.089,7.089,0,0,0,1.79,1.973,10.352,10.352,0,0,0,2.521,1.352c.95.365,1.937.694,2.923,1.023s1.936.658,2.923,1.023a9.323,9.323,0,0,1,2.521,1.388,5.97,5.97,0,0,1,2.485,5.115,9.762,9.762,0,0,1-.621,3.471,7.962,7.962,0,0,1-1.827,2.813,8.987,8.987,0,0,1-2.923,1.9,10.4,10.4,0,0,1-3.946.694,12.484,12.484,0,0,1-2.74-.256,10.681,10.681,0,0,1-2.229-.767,10.342,10.342,0,0,1-1.863-1.242A17.439,17.439,0,0,1,562,42.447l.073-.073.11-.11c.037-.037.073-.037.146-.037a.592.592,0,0,1,.365.256l.694.694a9.593,9.593,0,0,0,1.06.913A9.131,9.131,0,0,0,565.91,45a9.614,9.614,0,0,0,1.973.694,10.818,10.818,0,0,0,2.558.256,9.833,9.833,0,0,0,3.727-.658,8.168,8.168,0,0,0,2.777-1.827A7.7,7.7,0,0,0,578.7,40.8a8.655,8.655,0,0,0,.585-3.215,6.426,6.426,0,0,0-.438-2.485,5.524,5.524,0,0,0-1.206-1.79,7.729,7.729,0,0,0-1.754-1.279,16.666,16.666,0,0,0-2.156-.95c-.767-.292-1.535-.548-2.338-.767-.8-.256-1.571-.512-2.338-.8a16.734,16.734,0,0,1-2.156-.987,6.426,6.426,0,0,1-1.754-1.352,5.632,5.632,0,0,1-1.206-1.9,7.013,7.013,0,0,1-.438-2.594,7.1,7.1,0,0,1,.548-2.777,6.768,6.768,0,0,1,1.571-2.338,7.906,7.906,0,0,1,2.558-1.644,9.532,9.532,0,0,1,3.508-.621,9.291,9.291,0,0,1,7.125,3Z" transform="translate(-412.124 -15.19)"/>
      <path id="Path_206" data-name="Path 206" class="cls-1" d="M635.2,18.333a.37.37,0,0,1-.256.146c-.146,0-.329-.146-.585-.438a5.648,5.648,0,0,0-1.169-.95,8.282,8.282,0,0,0-1.973-.95,9.022,9.022,0,0,0-3.033-.438,8.7,8.7,0,0,0-3.325.585,6.822,6.822,0,0,0-2.411,1.535,6.656,6.656,0,0,0-1.5,2.229,7.172,7.172,0,0,0-.512,2.631,5.5,5.5,0,0,0,.694,2.923,7.089,7.089,0,0,0,1.79,1.973,10.352,10.352,0,0,0,2.521,1.352c.95.365,1.937.694,2.923,1.023s1.936.658,2.923,1.023a9.323,9.323,0,0,1,2.521,1.388,5.97,5.97,0,0,1,2.485,5.115,9.762,9.762,0,0,1-.621,3.471,7.962,7.962,0,0,1-1.827,2.813,8.987,8.987,0,0,1-2.923,1.9,10.4,10.4,0,0,1-3.946.694,12.484,12.484,0,0,1-2.74-.256,10.681,10.681,0,0,1-2.229-.767,10.342,10.342,0,0,1-1.863-1.242,17.446,17.446,0,0,1-1.644-1.644l.073-.073.11-.11c.037-.037.073-.037.146-.037a.592.592,0,0,1,.365.256l.694.694a9.593,9.593,0,0,0,1.06.913A9.131,9.131,0,0,0,622.41,45a9.614,9.614,0,0,0,1.973.694,10.818,10.818,0,0,0,2.558.256,9.833,9.833,0,0,0,3.727-.658,8.168,8.168,0,0,0,2.777-1.827A7.7,7.7,0,0,0,635.2,40.8a8.655,8.655,0,0,0,.585-3.215,6.426,6.426,0,0,0-.438-2.485,5.524,5.524,0,0,0-1.206-1.79,7.729,7.729,0,0,0-1.754-1.279,16.666,16.666,0,0,0-2.156-.95c-.767-.292-1.535-.548-2.338-.767-.8-.256-1.571-.512-2.338-.8a16.734,16.734,0,0,1-2.156-.987,6.426,6.426,0,0,1-1.754-1.352,5.632,5.632,0,0,1-1.206-1.9A7.013,7.013,0,0,1,620,22.681a7.1,7.1,0,0,1,.548-2.777,6.768,6.768,0,0,1,1.571-2.338,7.906,7.906,0,0,1,2.558-1.644,9.532,9.532,0,0,1,3.508-.621,9.291,9.291,0,0,1,7.125,3Z" transform="translate(-447.98 -15.19)"/>
    </g>
    <g id="Group_75" data-name="Group 75" transform="translate(0.023 -0.003)">
      <path id="Path_207" data-name="Path 207" class="cls-1" d="M2.28,3.14c.292-.292.621-.585.913-.877.037,0,.073-.037.11-.073A10.434,10.434,0,0,1,5.641.729a9.17,9.17,0,0,1,11.18,3.288A16.629,16.629,0,0,1,18.9,8.584a40.333,40.333,0,0,1,1.608,9.792,2.65,2.65,0,0,1-.219,1.5l-.4.4a2.456,2.456,0,0,1-1.242.256,44.117,44.117,0,0,1-5.809-.621,27.52,27.52,0,0,1-7.052-2.083A9.657,9.657,0,0,1,1.732,14.54,9.062,9.062,0,0,1,1.367,4.492C1.622,4.017,1.988,3.615,2.28,3.14ZM13.607,13.59a6.149,6.149,0,0,0-8.7-8.7,6.087,6.087,0,0,0,0,8.659A6.164,6.164,0,0,0,13.607,13.59Z" transform="translate(-0.023 0.003)"/>
      <path id="Path_208" data-name="Path 208" class="cls-1" d="M80.8,79.828l-.877.877c-.037.037-.11.037-.146.073A8.544,8.544,0,0,1,77.441,82.2a9.17,9.17,0,0,1-11.18-3.288,16.629,16.629,0,0,1-2.083-4.567,40.334,40.334,0,0,1-1.608-9.792,2.65,2.65,0,0,1,.219-1.5l.4-.4a2.456,2.456,0,0,1,1.242-.256,44.118,44.118,0,0,1,5.809.621A27.52,27.52,0,0,1,77.294,65.1a9.657,9.657,0,0,1,4.056,3.288,9.062,9.062,0,0,1,.365,10.048A7.609,7.609,0,0,1,80.8,79.828ZM69.512,69.415a6.149,6.149,0,1,0,8.7.037A6.131,6.131,0,0,0,69.512,69.415Z" transform="translate(-39.706 -39.6)"/>
      <path id="Path_209" data-name="Path 209" class="cls-1" d="M79.828,2.28l.877.877c.037.037.037.11.073.146A8.544,8.544,0,0,1,82.2,5.641a9.17,9.17,0,0,1-3.288,11.18A16.629,16.629,0,0,1,74.348,18.9a40.334,40.334,0,0,1-9.792,1.608,2.65,2.65,0,0,1-1.5-.219l-.4-.4a2.456,2.456,0,0,1-.256-1.242,44.117,44.117,0,0,1,.621-5.809A27.52,27.52,0,0,1,65.1,5.788a9.657,9.657,0,0,1,3.288-4.056A9.062,9.062,0,0,1,78.44,1.367,10.15,10.15,0,0,1,79.828,2.28ZM69.415,13.607a6.149,6.149,0,1,0,8.7-8.7,6.149,6.149,0,0,0-8.7,8.7Z" transform="translate(-39.609 -0.014)"/>
      <path id="Path_210" data-name="Path 210" class="cls-1" d="M3.437,80.758c-.292-.292-.585-.585-.913-.877-.037-.037-.037-.11-.073-.146a8.477,8.477,0,0,1-1.461-2.3A9.192,9.192,0,0,1,4.058,66.179a17.213,17.213,0,0,1,4.531-2.156,40.237,40.237,0,0,1,9.755-1.754,2.65,2.65,0,0,1,1.5.219,4.168,4.168,0,0,1,.4.4,2.128,2.128,0,0,1,.256,1.242,43.993,43.993,0,0,1-.512,5.809,28,28,0,0,1-1.973,7.088A9.706,9.706,0,0,1,14.8,81.16a9,9,0,0,1-10.048.512C4.277,81.416,3.875,81.05,3.437,80.758Zm10.23-11.473a6.149,6.149,0,1,0,.073,8.7A6.131,6.131,0,0,0,13.667,69.285Z" transform="translate(-0.12 -39.506)"/>
    </g>
  </g>
</svg>
