<svg xmlns="http://www.w3.org/2000/svg" viewBox="0 0 275.442 41.53">
  <defs>
    <style>
      .cls-1 {
        fill: #fff;
      }

      .cls-2 {
        fill: #59c5e2;
      }
    </style>
  </defs>
  <g id="Group_77" data-name="Group 77" transform="translate(0.021 0.011)">
    <g id="Group_76" data-name="Group 76" transform="translate(52.42 3.498)">
      <path id="Path_211" data-name="Path 211" class="cls-1" d="M119.7,42.867V8h5.87V23.112h17.3V8h5.87V42.867h-5.87V28.631h-17.3v14.28H119.7Z" transform="translate(-119.7 -8)"/>
      <path id="Path_212" data-name="Path 212" class="cls-1" d="M206.968,34.939l-3.5,7.928H197.2L212.531,8h6.264L234.17,42.867h-6.264l-3.5-7.928Zm15.068-5.432L215.685,15.14l-6.351,14.367Z" transform="translate(-163.253 -8)"/>
      <path id="Path_213" data-name="Path 213" class="cls-1" d="M294.412,33.1,302.165,8h5.3l7.8,25.1L324.023,8h6.351L318.2,42.867h-5.826l-7.359-23.873h-.394L297.3,42.867h-5.87L279.3,8h6.351Z" transform="translate(-209.391 -8)"/>
      <path id="Path_214" data-name="Path 214" class="cls-1" d="M408.3,8h5.87V25L430.114,8h7.49L423.587,23.243l14.236,19.58h-6.965L419.295,27.58l-5.081,5.475v9.768h-5.87V8Z" transform="translate(-281.885 -8)"/>
      <path id="Path_215" data-name="Path 215" class="cls-2" d="M512.3,8v6.921H494.953V22.1h15.594v6.614H494.953v7.227h17.915v6.877H487.2V8Z" transform="translate(-326.225 -8)"/>
      <path id="Path_216" data-name="Path 216" class="cls-2" d="M570.281,33.887a6.348,6.348,0,0,0,5.256,2.409,6.265,6.265,0,0,0,5.213-2.409,10.426,10.426,0,0,0,1.927-6.614V8h7.8V27.492c0,5.037-1.4,8.936-4.205,11.652a16.173,16.173,0,0,1-21.463,0C562,36.428,560.6,32.53,560.6,27.536V8h7.8V27.273A9.683,9.683,0,0,0,570.281,33.887Z" transform="translate(-367.473 -8)"/>
    </g>
    <path id="Path_217" data-name="Path 217" class="cls-1" d="M42.433,17.383A21.422,21.422,0,0,0,.032,22.99c.088,1.051.307,2.1.438,3.154,1.621-1.621,3.022-3.241,4.643-4.6a27.429,27.429,0,0,1,18-7.008c.657,0,2.672,2.541,2.672,2.541,3.2-.964,3.723-1.1,5.125-1.489A21.412,21.412,0,0,0,23.2,13.572C17.115,12.915,6.471,17.821.864,25.443c.394-.526,2.5-6.483,5.607-9.856C13.7,7.09,23.554,7.265,30.3,10.331a6.551,6.551,0,0,1,4.161,5.037c.044.263.307.482.482.7a25.164,25.164,0,0,1,2.672,3.46c1.314,2.365,3.855,4.862-1.8,8.892-.175-.394.7-2.409.394-3.11-.964-2.1-3.679-3.066-5.957-3.5a9.378,9.378,0,0,0-5.913.482,25.922,25.922,0,0,0-14.5,13.316c-1.665,3.373,3.066-5.037,8.016-8.323-4.468,7.8-3.329,8.848-3.285,14.236.569-7.534,2.1-13.447,8.323-18.091-.044.394-1.358,6.483.219,9.286a13.641,13.641,0,0,0,8.41,6.527,2.8,2.8,0,0,0,2.278-.657C40.9,33.2,43.966,26.144,42.433,17.383Zm-1.1,3.855c-.307-10.513-9.33-18.923-19.93-18.923S1.39,11.689,1.083,22.2v-.569c0-10.819,9.505-20.5,20.325-20.5S41.382,9.849,41.382,20.669A2.314,2.314,0,0,0,41.338,21.238Z" transform="translate(0 0)"/>
  </g>
</svg>
