<svg xmlns="http://www.w3.org/2000/svg" viewBox="0 0 653.2 144.2">
  <defs>
    <style>
      .cls-1 {
        fill: #fff;
      }

      .cls-2 {
        fill: #f38630;
      }
    </style>
  </defs>
  <g id="hit" transform="translate(0)">
    <path id="name" class="cls-1" d="M-236.2-350.1q-16.651-17.7-16.6-50.4,0-31.95,18.2-49.7c12.1-11.8,29.2-17.8,51.1-17.8a117.791,117.791,0,0,1,23.5,2.3,95.562,95.562,0,0,1,19.3,6l-11.3,28a69.474,69.474,0,0,0-31.3-7c-10.4,0-18.4,3.4-24.1,10.1s-8.5,16.4-8.5,29c0,12.3,2.6,21.7,7.7,28.2s12.6,9.7,22.2,9.7a66.126,66.126,0,0,0,14.6-1.5v-20.6H-195v-27.6h56.9v71.1c-15.5,5.3-32.4,7.9-51,7.9Q-219.55-332.4-236.2-350.1Zm-133.7,15.8h-35.6V-437h-32.2v-29.2h100v29.1h-32.1v102.8Zm-122.6,0V-466.2h35.8v131.9Zm-64.3,0V-388h-41.4v53.7H-634V-466.2h35.8v48.9h41.4v-48.9H-521v131.9Zm233.2-30.8v-70h4.9l41.4,62.1h.3c-.3-5.7-.4-11.2-.4-16.4v-45.8h4.7v70h-4.9l-41.5-62.1h-.4q.6,11.1.6,16.8v45.4Z" transform="translate(634 472.3)"/>
    <path id="clock" class="cls-2" d="M-634-395.9A72.04,72.04,0,0,1-562-468a72.147,72.147,0,0,1,72.2,72.1,72.125,72.125,0,0,1-72.1,72.1A72.125,72.125,0,0,1-634-395.9Zm17.7,0A54.286,54.286,0,0,0-562-341.6,54.307,54.307,0,0,0-507.7-396,54.286,54.286,0,0,0-562-450.3,54.371,54.371,0,0,0-616.3-395.9Zm50.2,9.7s.068-2.123.194-5.565c-3.261.126-5.294.185-5.294.165a4.225,4.225,0,0,1-4.2-4.2,4.225,4.225,0,0,1,4.2-4.2s2.163.08,5.6.226c.713-17.533,2.11-45.826,3.7-45.826s3,28.656,3.71,46.16c15.286.729,38.59,2.094,38.59,3.639,0,1.6-23.018,2.983-38.307,3.693.134,3.643.206,5.907.206,5.907a4.226,4.226,0,0,1-4.2,4.2A4.226,4.226,0,0,1-566.1-386.2Z" transform="translate(1143 468)"/>
  </g>
</svg>
