<svg id="mum" xmlns="http://www.w3.org/2000/svg" viewBox="0 0 932 297.8">
  <defs>
    <style>
      .cls-1 {
        fill: #fff;
      }
    </style>
  </defs>
  <path id="nam" class="cls-1" d="M900.3,63.9,817.5,164.8l-83-100.6v-.3H690v137H573V63.9H532.8L449.5,164.8,366.6,63.9H332v170h37v-117l78.7,97h8.1L531,119.6V218l15.7,15.9H720.3L733,218V119.6l78.2,94.3h8.1l75.7-97v117h37V63.9Z"/>
  <path id="ima" class="cls-1" d="M149,0C66.7,0,0,66.6,0,148.8A148.9,148.9,0,1,0,149,0Zm-.1,202.3a107.816,107.816,0,0,1-15.2-1c-.1.1-50.3,19.2-50.3,19.2s16.4-29.9,16.5-30.1c-20.7-11.3-34.1-29.4-34.1-50,0-34.2,37.2-61.9,83.1-61.9S232,106.2,232,140.4,194.8,202.3,148.9,202.3Z"/>
</svg>
